<svg width="49" height="57" viewBox="0 0 49 57" fill="none" xmlns="http://www.w3.org/2000/svg">
<path fill-rule="evenodd" clip-rule="evenodd" d="M32.962 4.38356C33.204 2.22196 31.6715 0.270075 29.5099 0.0281049C27.3483 -0.229996 25.3964 1.31861 25.1545 3.48021C24.8641 5.9483 25.2674 8.90033 25.7836 11.933C27.2193 12.3686 28.6066 12.9977 29.8971 13.7397C31.2844 10.4651 32.6394 7.22268 32.962 4.38356ZM48.1416 13.8688C47.2866 11.8685 44.9637 10.9651 42.9635 11.8201C40.334 12.9654 37.6079 15.2077 34.8655 17.5145C35.8979 18.5307 36.8658 19.6761 37.6885 20.9182C40.8019 20.531 43.7861 20.0632 46.0929 19.0631C48.0932 18.1758 49.0127 15.8529 48.1416 13.8688ZM41.5116 3.31889C39.7695 2.02839 37.3014 2.38328 36.0109 4.12546C34.0428 6.771 32.7201 10.7232 31.2844 14.5786C31.7683 14.9012 32.22 15.2238 32.6555 15.5626C32.9782 15.8207 33.3169 16.0949 33.6557 16.3691C36.9465 13.8849 40.3663 11.4652 42.3343 8.81968C43.6248 7.07749 43.2538 4.6094 41.5116 3.31889Z" fill="white"/>
<path d="M34.0267 34.904C32.8169 36.2106 31.5264 37.4205 30.1552 38.5981C28.2356 40.2596 26.2837 41.8727 24.2995 43.4213C22.1702 42.1147 20.6377 41.4533 20.3796 41.7921C20.1538 42.0986 21.041 43.2278 22.638 44.6957C17.2824 48.6801 11.6203 52.1968 5.53879 55.0843C4.58705 55.536 3.5869 55.8586 2.60289 56.2135C2.34479 56.3103 2.07056 56.3103 1.95764 56.3264C0.409032 56.5038 -0.0587761 56.0844 0.00574923 54.6649C0.199325 50.2449 1.57049 46.0991 2.99004 41.9695C3.3772 40.8403 3.78048 39.7111 4.19989 38.5819C6.34536 39.8886 7.87784 40.5661 8.13594 40.2273C8.41017 39.8563 7.11966 38.3722 4.95807 36.5171C6.50667 32.5166 8.23273 28.5805 10.2653 24.8058C14.3304 27.8223 17.9438 29.8065 18.3471 29.258C18.7503 28.7096 15.7661 25.7898 11.6526 22.741L11.4751 22.6119C12.1849 21.4021 12.9269 20.1922 13.7174 19.0146C14.7014 17.5306 15.9112 16.1755 17.105 14.8528C18.702 13.0944 20.7668 12.4976 23.0735 13.0138C30.4617 14.6592 35.5915 18.9017 38.0112 26.177C38.4951 27.661 38.0596 29.1129 37.3014 30.4518C36.7852 31.3551 36.2206 32.2101 35.5915 33.0166C31.6877 30.1614 28.3001 28.3224 27.9129 28.8386C27.5419 29.3548 30.2359 32.0165 34.0267 34.904Z" fill="white"/>
</svg>
